<svg xmlns="http://www.w3.org/2000/svg" width="1024" height="1024" viewBox="0 0 1024 1024">
  <defs>
    <linearGradient id="bg" x1="112" y1="96" x2="912" y2="928" gradientUnits="userSpaceOnUse">
      <stop offset="0" stop-color="#07111F"/>
      <stop offset="0.42" stop-color="#0F766E"/>
      <stop offset="0.72" stop-color="#2DD4BF"/>
      <stop offset="1" stop-color="#5B5CE2"/>
    </linearGradient>
    <radialGradient id="glowA" cx="32%" cy="24%" r="48%">
      <stop offset="0" stop-color="#FFFFFF" stop-opacity="0.26"/>
      <stop offset="1" stop-color="#FFFFFF" stop-opacity="0"/>
    </radialGradient>
    <radialGradient id="glowB" cx="78%" cy="78%" r="54%">
      <stop offset="0" stop-color="#8B5CF6" stop-opacity="0.46"/>
      <stop offset="1" stop-color="#8B5CF6" stop-opacity="0"/>
    </radialGradient>
    <filter id="shadow" x="-20%" y="-20%" width="140%" height="140%">
      <feDropShadow dx="0" dy="26" stdDeviation="28" flood-color="#020617" flood-opacity="0.30"/>
    </filter>
  </defs>

  <rect x="40" y="40" width="944" height="944" rx="228" fill="url(#bg)"/>
  <rect x="40" y="40" width="944" height="944" rx="228" fill="url(#glowA)"/>
  <rect x="40" y="40" width="944" height="944" rx="228" fill="url(#glowB)"/>

  <g filter="url(#shadow)">
    <path d="M260 444 C318 314 422 314 470 444 C517 574 614 574 764 404"
      fill="none" stroke="#FFFFFF" stroke-width="64" stroke-linecap="round"/>
    <path d="M260 444 C318 314 422 314 470 444 C517 574 614 574 764 404"
      fill="none" stroke="#BFF7EF" stroke-width="28" stroke-linecap="round" opacity="0.95"/>

    <rect x="214" y="610" width="596" height="190" rx="56" fill="#FFFFFF" opacity="0.96"/>
    <rect x="276" y="666" width="72" height="48" rx="18" fill="#0B1727" opacity="0.26"/>
    <rect x="382" y="666" width="72" height="48" rx="18" fill="#0B1727" opacity="0.26"/>
    <rect x="488" y="666" width="72" height="48" rx="18" fill="#0B1727" opacity="0.26"/>
    <rect x="594" y="666" width="72" height="48" rx="18" fill="#0B1727" opacity="0.26"/>
    <rect x="700" y="666" width="48" height="48" rx="18" fill="#0B1727" opacity="0.26"/>
    <rect x="332" y="736" width="360" height="34" rx="17" fill="#0B1727" opacity="0.22"/>
  </g>
</svg>
